<?xml version="1.0" encoding="UTF-8"?> <svg xmlns="http://www.w3.org/2000/svg" width="91" height="22" fill="none"><path d="M1.19996 2.88003v2l2 1c.2.12.36 1.24.32 2.4l-.08 4.51997-.08 3.04c-.04 1.84-.32 2.4-1.24 2.68l-.88.28L.959961 21H15.16l-.08-2.2-1.6-.32c-1.2-.24-1.6-.72-1.56-2.28l.36-9.79997c.36-.16.68-.28 1-.28.88 0 1.4.64 3.16 3.68 2.4-.92 4.12-2.44 4.12-4.92 0-2.64-1.6-4.4-3.88-4.4-2.36 0-4.04 1.92-5.4 5.08L11.8.400028c-2.16004 0-8.68004 1.760002-10.60004 2.480002zM21.0371 11.76c0 6.48 4.84 10.04 11.04 10.04 6.6 0 12.9201-4.12 12.9201-11.48 0-6.47997-4.84-10.039971-11.0401-10.039971-6.6 0-12.92 4.120001-12.92 11.479971zm14.3601.32c0 5.56-.7601 7.16-2.1201 7.16-1.32 0-2.64-2.6-2.64-9.24 0-5.55997.76-7.15997 2.12-7.15997 1.32 0 2.6401 2.6 2.6401 9.23997zM47.6584 7.28003c.04 3.19997 1.8 4.71997 4.76 6.35997 2.44 1.36 4.76 2.2 4.88 3.8.08.84-.52 1.4-1.56 1.4-2.32 0-5.24-2.64-6.28-5.52l-2.44.12c0 1.76.36 4.92 1 7.12 1.36.64 4.48 1.04 7.16 1.04 6.72 0 10.12-2.56 10.12-6.72 0-3.4-2.28-4.95997-6.36-7.15997-2.48-1.32-3.56-1.84-3.56-3.12 0-1.04.76-1.6 1.76-1.6 1.76 0 3.48 1.72 4.64 5.08l2.32-.24c.12-1.56.16-4.08.16-6.28-2.2-.719999-5.4-1.280001-7.76-1.280001-4.6 0-8.88 2.080001-8.84 7.000001zM67.8862 7.28003c0 1.48 1.04 2.44 2.68 2.44 1.48 0 3.2-.76 3.96-1.64-.44-2.04-.64-2.84-.68-3.32 0-.76.44-1.28 1.44-1.28 1.68 0 3.04 1.44 3.08 3.8l.04 2.08-4.96 1.71997c-3.84 1.36-6.04 3.24-6.04 6.08 0 2.64 1.88 4.12 4.72 4.12 2.76 0 5.28-1.4 6.64-2.88 1 1.96 3.2 3.12 5.68 3.12 2.72 0 4.96-1.44 5.92-3.2l-.64-1.2c-.52.28-1.08.52-1.6.52-.84 0-1.32-.6-1.32-1.8l.36-8.95997c.16-4-1.84-6.56-7.36-6.56-6.52 0-11.92 3.52-11.92 6.96zm9.2 10.19997c-.96 0-1.6-.8-1.6-2.68 0-1.16.36-2.16 1.52-2.6l1.44-.6v.32l-.12 5.2c-.48.24-.88.36-1.24.36z" fill="#212B49"></path></svg> 